<svg width="46" height="38" viewBox="0 0 46 38" fill="none" xmlns="http://www.w3.org/2000/svg">
<path d="M15.3333 19L15.3333 14C15.3333 9.76582 18.7658 6.33334 23 6.33334V6.33334C27.2342 6.33334 30.6667 9.76582 30.6667 14L30.6667 19" stroke="#222222" stroke-linecap="round"/>
<path d="M7.30366 17.8485C7.47619 16.1382 7.56246 15.283 8.1337 14.7665C8.70493 14.25 9.56444 14.25 11.2835 14.25H34.7165C36.4356 14.25 37.2951 14.25 37.8663 14.7665C38.4375 15.283 38.5238 16.1382 38.6963 17.8485L40.028 31.0493C40.1317 32.0773 40.1836 32.5914 39.8858 32.9207C39.588 33.25 39.0714 33.25 38.0381 33.25H7.96191C6.92862 33.25 6.41198 33.25 6.11421 32.9207C5.81644 32.5914 5.8683 32.0773 5.972 31.0493L7.30366 17.8485Z" stroke="#222222"/>
</svg>
