<svg xmlns="http://www.w3.org/2000/svg" xmlns:xlink="http://www.w3.org/1999/xlink" version="1.1" x="0px" y="0px" viewBox="0 0 32 40" style="enable-background:new 0 0 32 32;" xml:space="preserve"><path d="M26.9331055,9.53125C26.7016602,8.0644531,25.4555664,7,23.9697266,7H21.909668C21.4313354,4.1668701,18.9672241,2,16,2  s-5.4313354,2.1668701-5.909668,5H8.0302734C6.5444336,7,5.2983398,8.0644531,5.0668945,9.53125L2.7436523,24.2177734  c-0.2285156,1.4472656,0.1860352,2.9160156,1.1376953,4.0302734C4.8330078,29.3613281,6.21875,30,7.6831055,30h16.6337891  c1.4643555,0,2.8500977-0.6386719,3.8017578-1.7519531c0.9516602-1.1142578,1.3662109-2.5830078,1.1376953-4.0302734  L26.9331055,9.53125z M16,4c1.8583374,0,3.4108276,1.27948,3.8580322,3h-7.7160645C12.5891724,5.27948,14.1416626,4,16,4z   M26.5981445,26.9482422C26.0273438,27.6171875,25.1958008,28,24.3168945,28H7.6831055  c-0.8789062,0-1.7104492-0.3828125-2.28125-1.0517578c-0.5712891-0.6679688-0.8198242-1.5498047-0.6826172-2.4179688  L7.0424805,9.84375C7.1196289,9.3544922,7.5351562,9,8.0302734,9h15.9394531c0.4951172,0,0.9106445,0.3544922,0.987793,0.84375  l2.3232422,14.6865234C27.4179688,25.3984375,27.1694336,26.2802734,26.5981445,26.9482422z"/><path d="M20.5678711,14.7949219h-7.3030396l-0.0895386-0.3271484c-0.2875977-1.0556641-1.2519531-1.7919922-2.3452148-1.7919922H10  c-0.5522461,0-1,0.4472656-1,1s0.4477539,1,1,1h0.8300781c0.1938477,0,0.3647461,0.1308594,0.4155273,0.3183594l1.2231445,4.5361328  c0.3408203,1.2685547,1.4960938,2.1542969,2.809082,2.1542969h4.7802734c1.1157227,0,2.0854492-0.7558594,2.3579102-1.8378906  l0.5097656-2.0273438c0.184082-0.7314453,0.0239258-1.4921875-0.4399414-2.0878906  C22.0219727,15.1367188,21.3227539,14.7949219,20.5678711,14.7949219z M20.4765625,19.3583984  c-0.0483398,0.1923828-0.2207031,0.3261719-0.418457,0.3261719H15.277832c-0.4101562,0-0.7709961-0.2773438-0.8774414-0.6738281  l-0.5952148-2.2158203h6.7626953c0.1835938,0,0.2919922,0.1044922,0.340332,0.1660156  c0.0483398,0.0625,0.1225586,0.1923828,0.078125,0.3701172L20.4765625,19.3583984z"/><path d="M20.1601562,22.3242188h-0.0102539c-0.5522461,0-0.9946289,0.4472656-0.9946289,1s0.4526367,1,1.0048828,1s1-0.4472656,1-1  S20.7124023,22.3242188,20.1601562,22.3242188z"/><path d="M14.916254,22.3242188h-0.0102539c-0.5522461,0-0.9946289,0.4472656-0.9946289,1s0.4526367,1,1.0048828,1s1-0.4472656,1-1  S15.4685001,22.3242188,14.916254,22.3242188z"/><text x="0" y="47" fill="#000000" font-size="5px" font-weight="bold" font-family="'Helvetica Neue', Helvetica, Arial-Unicode, Arial, Sans-serif">Created by Riyan Resdian</text><text x="0" y="52" fill="#000000" font-size="5px" font-weight="bold" font-family="'Helvetica Neue', Helvetica, Arial-Unicode, Arial, Sans-serif">from the Noun Project</text></svg>